<svg width="101" height="95" viewBox="0 0 101 95" fill="none" xmlns="http://www.w3.org/2000/svg">
<g clip-path="url(#clip0_1_5125)">
<rect width="100.699" height="94.454" fill="white"/>
<path d="M97.6111 16.5753C97.6482 32.0746 94.2498 47.6414 85.7647 61.1099L85.7631 61.1125C78.5493 72.8775 67.7888 82.5971 55.4316 89.9611L55.4306 89.9617C53.6236 91.0495 51.7738 92.0953 49.8808 93.1223C49.7716 93.1815 49.7225 93.3119 49.7654 93.4284C49.8083 93.545 49.9302 93.6124 50.0517 93.5867C58.6814 91.762 66.8482 87.9739 73.9931 82.9468C77.5414 80.4734 80.9175 77.5008 83.8553 74.4247L83.8562 74.4238C90.3634 67.5389 95.2019 59.3572 98.0144 50.6344L98.0155 50.6311C101.411 39.5672 101.844 27.548 98.1049 16.5126C98.0795 16.4012 97.9798 16.3182 97.8608 16.3184C97.7228 16.3185 97.6111 16.4304 97.6111 16.5684V16.569L97.6111 16.5753Z" fill="#FF5C00" stroke="#FF5C00" stroke-width="0.5" stroke-linejoin="round"/>
<path d="M49.9783 92.8337C49.9394 92.879 49.9181 92.9367 49.9181 92.9963V93C49.9181 93.0935 49.9702 93.1791 50.0533 93.2221C50.1363 93.265 50.2363 93.258 50.3126 93.204C78.0066 73.5973 82.2044 35.0162 60.111 9.78554C57.1705 6.42444 53.8876 3.30544 50.1392 0.79235C50.0356 0.722898 49.8967 0.740419 49.8136 0.833416C49.7305 0.926413 49.7286 1.06644 49.8092 1.1616C52.6512 4.5163 55.1733 8.02199 57.4137 11.6567L57.4146 11.6582C74.2587 38.5736 70.5469 68.8212 49.9783 92.8337Z" fill="#FF5C00" stroke="#FF5C00" stroke-width="0.5" stroke-linejoin="round"/>
<path d="M3.0033 77.8575C3.04163 77.9743 3.15921 78.0459 3.2806 78.0264C3.40198 78.0068 3.49114 77.9019 3.49085 77.779C3.45412 62.2754 6.73938 46.7042 14.9431 33.2364L14.9447 33.2338C21.9181 21.4681 32.3195 11.7487 44.2636 4.38503L44.2646 4.38443C46.0112 3.29662 47.7992 2.25085 49.629 1.22387C49.737 1.16326 49.7843 1.03274 49.7403 0.916996C49.6963 0.801253 49.5742 0.735173 49.4532 0.761634C41.1086 2.587 33.2123 6.37637 26.3046 11.4045C22.8743 13.8782 19.6107 16.851 16.7708 19.9273L16.77 19.9282C10.4794 26.8138 5.80246 34.9957 3.08395 43.718L3.08297 43.7213C-0.200878 54.7914 -0.618432 66.8175 3.0033 77.8575Z" fill="#FF5C00" stroke="#FF5C00" stroke-width="0.5" stroke-linejoin="round"/>
<path d="M49.7938 0.95853C49.8761 0.862898 49.8743 0.720896 49.7895 0.627432C49.7047 0.533968 49.5635 0.518351 49.4604 0.59102C21.4361 20.3296 17.1878 59.171 39.5451 84.5682C42.5207 87.952 45.8427 91.092 49.6357 93.6219C49.7395 93.6911 49.8784 93.6732 49.9613 93.58C50.0442 93.4868 50.0457 93.3468 49.9648 93.2518C47.0887 89.8744 44.5364 86.3449 42.2692 82.6855L42.2683 82.6841C25.2225 55.5863 28.9786 25.1339 49.7938 0.95853Z" fill="#FF5C00" stroke="#FF5C00" stroke-width="0.5" stroke-linejoin="round"/>
</g>
<defs>
<clipPath id="clip0_1_5125">
<rect width="100.699" height="94.454" fill="white"/>
</clipPath>
</defs>
</svg>
